M48
; DRILL file {KiCad (6.0.8)} date Fri Sep 29 18:09:02 2023
; FORMAT={-:-/ absolute / metric / decimal}
; #@! TF.CreationDate,2023-09-29T18:09:02+09:00
; #@! TF.GenerationSoftware,Kicad,Pcbnew,(6.0.8)
; #@! TF.FileFunction,MixedPlating,1,2
FMAT,2
METRIC
; #@! TA.AperFunction,Plated,PTH,ViaDrill
T1C0.400
; #@! TA.AperFunction,Plated,PTH,ComponentDrill
T2C0.800
; #@! TA.AperFunction,Plated,PTH,ComponentDrill
T3C0.900
; #@! TA.AperFunction,Plated,PTH,ComponentDrill
T4C1.000
; #@! TA.AperFunction,Plated,PTH,ComponentDrill
T5C1.100
; #@! TA.AperFunction,NonPlated,NPTH,ComponentDrill
T6C3.500
%
G90
G05
T1
X4.064Y47.752
X4.064Y16.764
X5.334Y15.494
X8.128Y20.32
X10.668Y42.926
X10.668Y26.416
X13.462Y17.78
X23.109Y15.499
X23.368Y30.226
X26.162Y17.78
X26.162Y15.24
X33.528Y60.96
X33.528Y55.88
X36.312Y45.71
X36.322Y35.306
X36.449Y30.353
X39.116Y58.42
X39.116Y15.24
X41.392Y33.01
X41.656Y53.34
X46.228Y50.8
X47.498Y30.48
X56.642Y25.4
X74.893Y14.478
X74.93Y39.624
X81.788Y40.64
X86.106Y23.368
X86.106Y11.176
X91.948Y40.64
T2
X12.192Y60.96
X12.192Y50.8
X13.472Y40.645
X13.472Y38.105
X13.472Y35.565
X13.472Y33.025
X13.472Y30.485
X13.472Y27.945
X13.472Y25.405
X18.542Y60.96
X18.542Y50.8
X21.082Y23.114
X21.092Y40.645
X21.092Y38.105
X21.092Y35.565
X21.092Y33.025
X21.092Y30.485
X21.092Y27.945
X21.092Y25.405
X23.622Y37.084
X23.622Y34.544
X25.146Y60.96
X25.146Y50.8
X26.172Y45.71
X26.172Y43.17
X26.172Y40.63
X26.172Y38.09
X26.172Y35.55
X26.172Y33.01
X26.172Y30.47
X26.172Y27.93
X31.242Y23.114
X33.792Y45.71
X33.792Y43.17
X33.792Y40.63
X33.792Y38.09
X33.792Y35.55
X33.792Y33.01
X33.792Y30.47
X33.792Y27.93
X38.862Y45.659
X38.862Y43.659
X38.862Y37.367
X38.862Y35.367
X43.18Y23.622
X43.942Y60.96
X43.942Y39.37
X43.952Y55.87
X43.952Y53.33
X43.952Y50.79
X43.952Y48.25
X45.476Y35.55
X45.476Y33.01
X45.476Y30.47
X45.476Y27.93
X46.482Y17.78
X51.572Y55.87
X51.572Y53.33
X51.572Y50.79
X51.572Y48.25
X53.096Y35.55
X53.096Y33.01
X53.096Y30.47
X53.096Y27.93
X53.34Y23.622
X54.102Y60.96
X54.102Y39.37
X56.642Y55.88
X56.642Y53.34
X56.642Y48.26
X56.642Y45.466
X56.642Y17.78
X57.465Y62.992
X57.719Y39.37
X59.182Y33.02
X59.182Y30.48
X59.182Y27.94
X59.182Y25.4
X59.465Y62.992
X59.719Y39.37
X66.802Y55.88
X66.802Y53.34
X66.802Y48.26
X66.802Y45.466
X67.183Y20.168
X67.183Y10.008
X69.342Y33.02
X69.342Y30.48
X69.342Y27.94
X69.342Y25.4
X76.962Y49.53
X81.28Y37.084
X87.122Y49.53
X91.44Y37.084
T3
X12.187Y66.04
X14.727Y66.04
X18.542Y66.04
X21.082Y66.04
X25.141Y66.04
X27.681Y66.04
X61.722Y17.775
X61.722Y15.235
T4
X8.377Y12.7
X8.377Y10.16
X10.917Y12.7
X10.917Y10.16
X13.457Y12.7
X13.457Y10.16
X15.997Y12.7
X15.997Y10.16
X18.537Y12.7
X18.537Y10.16
X21.077Y12.7
X21.077Y10.16
X23.617Y12.7
X23.617Y10.16
X26.157Y12.7
X26.157Y10.16
X28.697Y12.7
X28.697Y10.16
X31.237Y12.7
X31.237Y10.16
X33.777Y12.7
X33.777Y10.16
X36.317Y12.7
X36.317Y10.16
X38.857Y12.7
X38.857Y10.16
X39.111Y25.908
X41.397Y12.7
X41.397Y10.16
X41.651Y25.908
X43.937Y12.7
X43.937Y10.16
X46.477Y12.7
X46.477Y10.16
X49.017Y12.7
X49.017Y10.16
X51.557Y12.7
X51.557Y10.16
X54.097Y12.7
X54.097Y10.16
X56.637Y12.7
X56.637Y10.16
T5
X79.416Y58.674
X79.416Y56.134
X79.416Y53.594
X79.416Y45.72
X79.416Y43.18
X79.416Y40.64
X79.416Y33.02
X79.416Y30.48
X79.416Y27.94
X79.416Y19.812
X79.416Y17.272
X79.416Y14.732
T6
X96.076Y56.134
X96.076Y43.18
X96.076Y30.48
X96.076Y17.272
T0
M30
